<svg width="48" height="72" viewBox="0 0 48 72" fill="none" xmlns="http://www.w3.org/2000/svg">
<path d="M13.2654 0.0632351L47.5 61.5146C47.5 92.0091 22.3661 43.0492 7.74074 43.0492L1.70271 43.5147C2.16944 33.9733 9.25808 30.2445 11.4831 20.8734C13.3674 12.9374 14.5754 -1.05551 13.2654 0.0632351C-6.46484 38.0147 9.6985 34.9045 9.5 51.5147L10.5 67.5147C10.5 67.5147 0 71.831 0 67.5147C0 63.1984 1.52748 44.0987 2.03516 40.5147C1.52647 36.4157 2.72573 30.6253 7.03516 27.0147C15.7082 19.7481 14.9049 47.923 27.0926 47.923C31.5062 47.923 8 4.56012 13.2654 0.0632351Z" fill="url(#paint0_linear_2369_4125)"/>
<defs>
<linearGradient id="paint0_linear_2369_4125" x1="23.75" y1="0" x2="23.75" y2="71.5171" gradientUnits="userSpaceOnUse">
<stop stop-color="#8A38F5"/>
<stop offset="1" stop-color="#1E31DB"/>
</linearGradient>
</defs>
</svg>
